# xmcd CD database file
# Copyright (C) 1997 Ti Kan
# 
# Track frame offsets:
#     150
#     17595
#     31789
#     50214
#     64856
#     81474
#     96170
#     113731
#     131720
#     157677
#     177026
#     192570
# 
# Disc length: 2960 seconds
# 
# Revision: 1
# Processed by: cddbd v1.4b41PL1 Copyright (c) Steve Scherf et al.
# Submitted via: DiscPlay 4.0.3
# 
DISCID=9b0b8e0c
DTITLE=Real de catorce - Contraley
DYEAR=1900
DGENRE=
TTITLE0=El taxi de los sue os
TTITLE1=El blues del atajo
TTITLE2=Dorina y Abel
TTITLE3=Jeny
TTITLE4=Llame por favor
TTITLE5=Tu alma no pesa
TTITLE6=Contraley
TTITLE7=El quinqu 
TTITLE8=Devoto amor
TTITLE9=El honor y la furia
TTITLE10=Beso de ginebra
TTITLE11=Esta noche
EXTD=
EXTT0=
EXTT1=
EXTT2=
EXTT3=
EXTT4=
EXTT5=
EXTT6=
EXTT7=
EXTT8=
EXTT9=
EXTT10=
EXTT11=
PLAYORDER=
